<svg id="Layer_1" data-name="Layer 1" xmlns="http://www.w3.org/2000/svg" viewBox="0 0 354 166"><defs><style>.cls-1{fill:#3b3b3b;}.cls-2{fill:#01d274;}</style></defs><title>Artboard 1 copy</title><path class="cls-1" d="M83,166H2.19A2.19,2.19,0,0,1,0,163.81V2.19A2.19,2.19,0,0,1,2.19,0H83a83,83,0,0,1,83,83h0A83,83,0,0,1,83,166Z"/><path class="cls-2" d="M185,163.62V2.23A2.23,2.23,0,0,1,187.23,0H351.77A2.23,2.23,0,0,1,354,2.23V163.62a2.23,2.23,0,0,1-3.8,1.58L269.5,84.5l-80.7,80.7A2.23,2.23,0,0,1,185,163.62Z"/></svg>