<svg id="Layer_1" data-name="Layer 1" xmlns="http://www.w3.org/2000/svg" viewBox="0 0 365 166"><defs><style>.cls-1{fill:#f7f7f7;}.cls-2{fill:#01d274;}</style></defs><title>logo-light</title><path class="cls-1" d="M83,166H13.7A13.7,13.7,0,0,1,0,152.3V13.7A13.7,13.7,0,0,1,13.7,0H83a83,83,0,0,1,83,83h0A83,83,0,0,1,83,166Z"/><path class="cls-2" d="M182,152.9V12.47A12.47,12.47,0,0,1,194.47,0H352.53A12.47,12.47,0,0,1,365,12.47V152.9a12.47,12.47,0,0,1-21.28,8.82l-61.4-61.4a12.48,12.48,0,0,0-17.64,0l-61.4,61.4A12.47,12.47,0,0,1,182,152.9Z"/></svg>